<?xml version="1.0" encoding="UTF-8" standalone="no"?>
<svg
   height="16px"
   viewBox="0 0 16 16"
   width="16px"
   version="1.1"
   id="svg1"
   sodipodi:docname="draw-text-symbolic.svg"
   inkscape:version="1.4 (e7c3feb100, 2024-10-09)"
   xmlns:inkscape="http://www.inkscape.org/namespaces/inkscape"
   xmlns:sodipodi="http://sodipodi.sourceforge.net/DTD/sodipodi-0.dtd"
   xmlns="http://www.w3.org/2000/svg"
   xmlns:svg="http://www.w3.org/2000/svg">
  <defs
     id="defs1" />
  <sodipodi:namedview
     id="namedview1"
     pagecolor="#ffffff"
     bordercolor="#000000"
     borderopacity="0.25"
     inkscape:showpageshadow="2"
     inkscape:pageopacity="0.0"
     inkscape:pagecheckerboard="0"
     inkscape:deskcolor="#d1d1d1"
     inkscape:zoom="24.704543"
     inkscape:cx="11.576818"
     inkscape:cy="12.548299"
     inkscape:window-width="2560"
     inkscape:window-height="1371"
     inkscape:window-x="0"
     inkscape:window-y="0"
     inkscape:window-maximized="1"
     inkscape:current-layer="svg1" />
  <path
     id="path4"
     style="fill:#222222;fill-opacity:1;stroke:none;stroke-width:1;stroke-linejoin:round;stroke-dasharray:none;stroke-opacity:1;paint-order:markers fill stroke"
     d="M 4.9707031 0.91015625 C 4.5278779 0.91015625 4.1444122 1.2117876 4.0273438 1.640625 L 1.5585938 10.113281 L 3.5839844 10.113281 L 4.2109375 8.1425781 L 7.2871094 8.1425781 L 7.3691406 8.4101562 L 8.8203125 6.2890625 L 7.4804688 1.640625 C 7.365945 1.2092198 6.9799353 0.91015625 6.5371094 0.91015625 L 4.9707031 0.91015625 z M 5.7402344 2.8828125 C 5.8674827 2.8853825 5.9746685 2.9053913 6.0332031 3.1210938 L 6.8476562 6.1699219 L 4.6347656 6.1699219 L 5.4570312 3.0878906 C 5.5079307 2.8978673 5.6231652 2.8802447 5.7402344 2.8828125 z " />
  <path
     style="fill:#222222;fill-opacity:1;stroke:#222222;stroke-width:1;stroke-linejoin:round;stroke-dasharray:none;stroke-opacity:1;paint-order:markers fill stroke"
     d="M 3.6632938,13.823368 11.920885,1.7608097"
     id="path2"
     sodipodi:nodetypes="cc" />
  <path
     id="path3"
     style="fill:#222222;fill-opacity:1;stroke:none;stroke-width:1;stroke-linejoin:round;stroke-dasharray:none;stroke-opacity:1;paint-order:markers fill stroke"
     d="M 13.349609 5.8808594 C 12.841918 5.8808594 12.277684 6.1436937 11.882812 6.5761719 C 11.506744 6.9898467 11.488925 6.9892139 10.849609 8.1738281 L 10.304688 9.1523438 L 10.097656 8.1171875 C 9.8416033 6.8218606 9.5237213 6.1687126 9.0117188 5.9589844 L 8.0585938 7.34375 C 8.1758677 7.3787423 8.3074591 7.474986 8.3671875 7.609375 C 8.5364181 7.9102294 8.5360414 7.9119009 8.9121094 9.7734375 L 9.1386719 10.863281 L 8.2910156 12.367188 C 7.7645204 13.344964 7.3137984 13.853516 6.9941406 13.853516 C 6.8437134 13.853516 6.7504974 13.721007 6.7128906 13.476562 C 6.6188736 12.968871 6.3743819 12.744141 5.9042969 12.744141 C 5.3401949 12.744141 4.9453125 13.194669 4.9453125 13.833984 C 4.9453125 14.548514 5.4334109 15 6.1855469 15 C 7.0881101 15 7.9727038 14.247418 8.78125 12.818359 L 9.3457031 11.802734 L 9.6269531 13.0625 C 9.9466109 14.472755 10.417252 15 11.357422 15 C 12.053148 15 12.390903 14.773694 13.255859 13.720703 C 13.575517 13.325832 13.632933 13.269751 14.140625 12.367188 L 13.556641 12.048828 C 13.368607 12.349683 13.313301 12.443019 13.03125 12.837891 C 12.485951 13.571223 12.164633 13.853516 11.826172 13.853516 C 11.393694 13.853516 11.205649 13.438363 10.867188 11.896484 L 10.511719 10.111328 L 11.337891 8.5878906 C 11.789172 7.7229342 12.184976 7.328125 12.523438 7.328125 C 12.673865 7.328125 12.766583 7.403035 12.841797 7.5722656 C 13.011027 7.9483336 13.143961 8.0429687 13.482422 8.0429688 C 14.065327 8.0429688 14.421875 7.647856 14.421875 7.0273438 C 14.421875 6.3692247 13.970122 5.8808594 13.349609 5.8808594 z " />
</svg>
