<?xml version="1.0" encoding="UTF-8" standalone="no"?>
<svg
   height="16px"
   viewBox="0 0 16 16"
   width="16px"
   version="1.1"
   id="svg1"
   sodipodi:docname="text-math-change-symbolic.svg"
   inkscape:version="1.4 (e7c3feb100, 2024-10-09)"
   xmlns:inkscape="http://www.inkscape.org/namespaces/inkscape"
   xmlns:sodipodi="http://sodipodi.sourceforge.net/DTD/sodipodi-0.dtd"
   xmlns="http://www.w3.org/2000/svg"
   xmlns:svg="http://www.w3.org/2000/svg">
  <defs
     id="defs1" />
  <sodipodi:namedview
     id="namedview1"
     pagecolor="#ffffff"
     bordercolor="#000000"
     borderopacity="0.25"
     inkscape:showpageshadow="2"
     inkscape:pageopacity="0.0"
     inkscape:pagecheckerboard="0"
     inkscape:deskcolor="#d1d1d1"
     inkscape:zoom="2.1835937"
     inkscape:cx="-73.731664"
     inkscape:cy="90.218247"
     inkscape:window-width="2560"
     inkscape:window-height="1371"
     inkscape:window-x="0"
     inkscape:window-y="0"
     inkscape:window-maximized="1"
     inkscape:current-layer="svg1" />
  <path
     id="path4"
     style="fill:#222222;fill-opacity:1;stroke:none;stroke-width:1;stroke-linejoin:round;stroke-dasharray:none;stroke-opacity:1;paint-order:markers fill stroke"
     d="m 4.3635271,0.70776435 c -0.4428252,0 -0.8262909,0.30163125 -0.9433593,0.73046865 L 0.95141784,9.9108898 H 2.9768084 L 3.6037615,7.9401861 H 6.6799334 L 6.7619646,8.2077642 8.2131365,6.0866705 6.8732928,1.438233 C 6.758769,1.0068278 6.3727593,0.70776435 5.9299334,0.70776435 Z M 5.1330584,2.6804205 c 0.1272483,0.00257 0.2344341,0.022579 0.2929687,0.2382813 L 6.2404802,5.9675299 H 4.0275896 L 4.8498552,2.8854986 c 0.0509,-0.1900233 0.166134,-0.2076459 0.2832032,-0.2050781 z" />
  <path
     style="fill:#222222;fill-opacity:1;stroke:#222222;stroke-width:2;stroke-linejoin:round;stroke-dasharray:none;stroke-opacity:1;paint-order:markers fill stroke"
     d="M 2.5501382,15.138916 12.609018,0.6881325"
     id="path2"
     sodipodi:nodetypes="cc" />
  <path
     id="path3"
     style="fill:#222222;fill-opacity:1;stroke:none;stroke-width:1;stroke-linejoin:round;stroke-dasharray:none;stroke-opacity:1;paint-order:markers fill stroke"
     d="m 13.673433,5.8808594 c -0.507691,0 -1.071925,0.2628343 -1.466797,0.6953125 -0.376068,0.4136748 -0.393887,0.413042 -1.033203,1.5976562 L 10.628512,9.1523438 10.42148,8.1171875 C 10.165429,6.8218606 9.8475482,6.1687126 9.3355462,5.9589844 L 8.3824212,7.34375 c 0.117274,0.034992 0.248865,0.131236 0.308594,0.265625 0.16923,0.3008544 0.168853,0.3025259 0.544921,2.1640625 l 0.226563,1.0898435 -0.847656,1.503907 c -0.5264956,0.977776 -0.9772176,1.486328 -1.2968754,1.486328 -0.1504272,0 -0.2436432,-0.132509 -0.28125,-0.376954 -0.094017,-0.507691 -0.3385087,-0.732421 -0.8085937,-0.732421 -0.564102,0 -0.9589844,0.450528 -0.9589844,1.089843 0,0.71453 0.4880984,1.166016 1.2402344,1.166016 0.9025632,0 1.7871569,-0.752582 2.5957031,-2.181641 l 0.564453,-1.015625 0.28125,1.259766 C 10.270436,14.472755 10.741076,15 11.681246,15 c 0.695726,0 1.033481,-0.226306 1.898437,-1.279297 0.319658,-0.394871 0.377074,-0.450952 0.884766,-1.353515 l -0.583984,-0.31836 c -0.188034,0.300855 -0.24334,0.394191 -0.525391,0.789063 -0.545299,0.733332 -0.866617,1.015625 -1.205078,1.015625 -0.432478,0 -0.620523,-0.415153 -0.958984,-1.957032 L 10.835543,10.111328 11.661715,8.5878906 C 12.112996,7.7229342 12.5088,7.328125 12.847262,7.328125 c 0.150427,0 0.243145,0.07491 0.318359,0.2441406 0.16923,0.376068 0.302164,0.4707031 0.640625,0.4707032 0.582905,0 0.939453,-0.3951128 0.939453,-1.015625 0,-0.6581191 -0.451753,-1.1464844 -1.072266,-1.1464844 z" />
</svg>
