<?xml version="1.0" encoding="UTF-8"?>
<svg height="128px" viewBox="0 0 128 128" width="128px" xmlns="http://www.w3.org/2000/svg" xmlns:xlink="http://www.w3.org/1999/xlink">
    <linearGradient id="a" gradientUnits="userSpaceOnUse" x1="60.49501" x2="104.00499" y1="64.349106" y2="10">
        <stop offset="0" stop-color="#71859c"/>
        <stop offset="1" stop-color="#93a6b3"/>
    </linearGradient>
    <linearGradient id="b" gradientUnits="userSpaceOnUse" x1="80.95945" x2="80.025787" y1="22.653885" y2="27.61203">
        <stop offset="0" stop-color="#6b886b"/>
        <stop offset="1" stop-color="#709070"/>
    </linearGradient>
    <path d="m 28.496094 8.496094 h 71.007812 c 4.417969 0 8 3.582031 8 8 v 95.007812 c 0 4.417969 -3.582031 8 -8 8 h -71.007812 c -4.417969 0 -8 -3.582031 -8 -8 v -95.007812 c 0 -4.417969 3.582031 -8 8 -8 z m 0 0" fill="#3a4660"/>
    <path d="m 30 10 h 69.503906 c 4.417969 0 8 3.582031 8 8 v 91 c 0 4.417969 -3.582031 8 -8 8 h -69.503906 c -4.417969 0 -8 -3.582031 -8 -8 v -91 c 0 -4.417969 3.582031 -8 8 -8 z m 0 0" fill="#71859c"/>
    <path d="m 32 26 h 67.53125 c 3.3125 0 6 2.6875 6 6 v 76.515625 c 0 3.3125 -2.6875 6 -6 6 h -67.53125 c -3.3125 0 -6 -2.6875 -6 -6 v -76.515625 c 0 -3.3125 2.6875 -6 6 -6 z m 0 0" fill="#f6f5f4"/>
    <path d="m 28.496094 8.496094 h 71.007812 c 4.417969 0 8 3.582031 8 8 v 87.078125 c 0 4.417969 -3.582031 8 -8 8 h -71.007812 c -4.417969 0 -8 -3.582031 -8 -8 v -87.078125 c 0 -4.417969 3.582031 -8 8 -8 z m 0 0" fill="#3a4660"/>
    <path d="m 28.496094 8.496094 h 71.007812 c 4.417969 0 8 3.582031 8 8 v 84.957031 c 0 4.417969 -3.582031 8 -8 8 h -71.007812 c -4.417969 0 -8 -3.582031 -8 -8 v -84.957031 c 0 -4.417969 3.582031 -8 8 -8 z m 0 0" fill="url(#a)"/>
    <path d="m 28.496094 8.492188 c -4.433594 0 -8 3.570312 -8 8 v 92.960937 h 0.660156 l 1.640625 6.140625 l 2.675781 0.011719 c -1.75 -1.632813 0.253906 -4.203125 3.714844 -4.027344 h 8.609375 l -0.046875 -2.125 v -100.960937 z m 0 0" fill="#3a4660"/>
    <path d="m 54.816406 20 h 35.625 c 2.207032 0 4 1.789062 4 4 v 20.5 c 0 2.210938 -1.792968 4 -4 4 h -35.625 c -2.210937 0 -4 -1.789062 -4 -4 v -20.5 c 0 -2.210938 1.789063 -4 4 -4 z m 0 0" fill="#374837"/>
    <path d="m 54.816406 21.417969 h 35.625 c 2.207032 0 4 1.789062 4 4 v 19.082031 c 0 2.210938 -1.792968 4 -4 4 h -35.625 c -2.210937 0 -4 -1.789062 -4 -4 v -19.082031 c 0 -2.210938 1.789063 -4 4 -4 z m 0 0" fill="url(#b)"/>
    <path d="m 70.675781 60.457031 h 4 c 2.210938 0 4 1.789063 4 4 v 2 c 0 2.207031 -1.789062 4 -4 4 h -4 c -2.207031 0 -4 -1.792969 -4 -4 v -2 c 0 -2.210937 1.792969 -4 4 -4 z m 0 0" fill="#383f47"/>
    <path d="m 70.628906 58.828125 h 4 c 2.207032 0 4 1.792969 4 4 v 2 c 0 2.210937 -1.792968 4 -4 4 h -4 c -2.210937 0 -4 -1.789063 -4 -4 v -2 c 0 -2.207031 1.789063 -4 4 -4 z m 0 0" fill="#505c5e"/>
    <path d="m 86.488281 60.457031 h 4 c 2.210938 0 4 1.789063 4 4 v 2 c 0 2.207031 -1.789062 4 -4 4 h -4 c -2.207031 0 -4 -1.792969 -4 -4 v -2 c 0 -2.210937 1.792969 -4 4 -4 z m 0 0" fill="#383f47"/>
    <path d="m 86.441406 58.828125 h 4 c 2.207032 0 4 1.792969 4 4 v 2 c 0 2.210937 -1.792968 4 -4 4 h -4 c -2.210937 0 -4 -1.789063 -4 -4 v -2 c 0 -2.207031 1.789063 -4 4 -4 z m 0 0" fill="#505c5e"/>
    <path d="m 54.863281 60.457031 h 4 c 2.210938 0 4 1.789063 4 4 v 2 c 0 2.207031 -1.789062 4 -4 4 h -4 c -2.207031 0 -4 -1.792969 -4 -4 v -2 c 0 -2.210937 1.792969 -4 4 -4 z m 0 0" fill="#383f47"/>
    <path d="m 54.816406 58.828125 h 4 c 2.207032 0 4 1.792969 4 4 v 2 c 0 2.210937 -1.792968 4 -4 4 h -4 c -2.210937 0 -4 -1.789063 -4 -4 v -2 c 0 -2.207031 1.789063 -4 4 -4 z m 0 0" fill="#505c5e"/>
    <path d="m 54.863281 75.457031 h 4 c 2.210938 0 4 1.789063 4 4 v 2 c 0 2.207031 -1.789062 4 -4 4 h -4 c -2.207031 0 -4 -1.792969 -4 -4 v -2 c 0 -2.210937 1.792969 -4 4 -4 z m 0 0" fill="#383f47"/>
    <path d="m 54.816406 73.828125 h 4 c 2.207032 0 4 1.792969 4 4 v 2 c 0 2.210937 -1.792968 4 -4 4 h -4 c -2.210937 0 -4 -1.789063 -4 -4 v -2 c 0 -2.207031 1.789063 -4 4 -4 z m 0 0" fill="#505c5e"/>
    <path d="m 70.675781 75.457031 h 4 c 2.210938 0 4 1.789063 4 4 v 2 c 0 2.207031 -1.789062 4 -4 4 h -4 c -2.207031 0 -4 -1.792969 -4 -4 v -2 c 0 -2.210937 1.792969 -4 4 -4 z m 0 0" fill="#383f47"/>
    <path d="m 70.628906 73.828125 h 4 c 2.207032 0 4 1.792969 4 4 v 2 c 0 2.210937 -1.792968 4 -4 4 h -4 c -2.210937 0 -4 -1.789063 -4 -4 v -2 c 0 -2.207031 1.789063 -4 4 -4 z m 0 0" fill="#505c5e"/>
    <path d="m 86.488281 75.457031 h 3.953125 c 2.207032 0 4 1.789063 4 4 v 17 c 0 2.207031 -1.792968 4 -4 4 h -3.953125 c -2.207031 0 -4 -1.792969 -4 -4 v -17 c 0 -2.210937 1.792969 -4 4 -4 z m 0 0" fill="#854e0e"/>
    <path d="m 86.441406 73.828125 h 4 c 2.207032 0 4 1.792969 4 4 v 17 c 0 2.210937 -1.792968 4 -4 4 h -4 c -2.210937 0 -4 -1.789063 -4 -4 v -17 c 0 -2.207031 1.789063 -4 4 -4 z m 0 0" fill="#d17b14"/>
    <path d="m 54.863281 90.457031 h 4 c 2.210938 0 4 1.789063 4 4 v 2 c 0 2.207031 -1.789062 4 -4 4 h -4 c -2.207031 0 -4 -1.792969 -4 -4 v -2 c 0 -2.210937 1.792969 -4 4 -4 z m 0 0" fill="#383f47"/>
    <path d="m 54.816406 88.828125 h 4 c 2.207032 0 4 1.792969 4 4 v 2 c 0 2.210937 -1.792968 4 -4 4 h -4 c -2.210937 0 -4 -1.789063 -4 -4 v -2 c 0 -2.207031 1.789063 -4 4 -4 z m 0 0" fill="#505c5e"/>
    <path d="m 70.675781 90.457031 h 4 c 2.210938 0 4 1.789063 4 4 v 2 c 0 2.207031 -1.789062 4 -4 4 h -4 c -2.207031 0 -4 -1.792969 -4 -4 v -2 c 0 -2.210937 1.792969 -4 4 -4 z m 0 0" fill="#383f47"/>
    <path d="m 70.628906 88.828125 h 4 c 2.207032 0 4 1.792969 4 4 v 2 c 0 2.210937 -1.792968 4 -4 4 h -4 c -2.210937 0 -4 -1.789063 -4 -4 v -2 c 0 -2.207031 1.789063 -4 4 -4 z m 0 0" fill="#505c5e"/>
</svg>
